<svg xmlns="http://www.w3.org/2000/svg" version="1.1" xmlns:xlink="http://www.w3.org/1999/xlink" width="2000" height="213" viewBox="0 0 2000 213"><svg xml:space="preserve" width="2000" height="213" data-version="2" data-id="lg_jPA3bHvx3cX3OonjLF" viewBox="0 0 583 213" x="0" y="0"><rect width="100%" height="100%" fill="transparent"></rect><path fill="#8951ef" d="M78.585 62.045q1.32-3.17 1.32-5.94 0-8.58-13.07-8.58-6.07 0-13.14 1.78-7.06 1.78-11.15 3.89-7.13 3.57-10.49 6.93-3.37 3.37-3.5 9.44-.13 9.24-.53 16.17-.4 6.93-1.45 13.66 15.97-5.94 29.57-15.04 8.97-5.94 14.52-10.89 5.54-4.95 7.92-11.42m-48.45-28.65q0 1.98-.26 6.47-.27 2.64-.27 4.23l5.68-7.4q4.75-6.2 7.26-9.7 2.51-3.5 4.62-7.59-4.62 1.06-8.18 2.31-3.57 1.26-6.47 3.24-1.59 1.18-2.18 1.98-.59.79-.59 1.71 0 .79.19 2.11.2 1.32.2 2.64m50.03-3.56q7.13 1.19 10.49 5.54 3.37 4.36 3.37 10.83 0 4.75-1.98 11.09-5.15 16.23-23.5 32.34-14.38 12.27-31.94 21.25-5.68 3.03-12.94 6.07-7.26 3.04-12.4 3.04-3.96 0-5.28-2.38-.53-.92-.53-2.11 0-1.59.79-2.97.79-1.39 2.51-3.9 1.98-2.64 2.51-3.96 1.18-3.43 1.18-9.5v-3.17q0-1.05-.06-2.51-.07-1.45.06-3.16 1.06-14.26 1.46-21.39 0-1.85.13-3.23.13-1.39.26-2.44.13-1.32.27-3.3.13-1.98.13-4.62 0-2.78-.4-5.28-.53-3.44-1.58-5.15-.13-.4-1.26-1.52-1.12-1.12-1.25-1.65-.13-.53-.13-1.45 0-4.36 5.01-12.28 1.46-2.24 2.91-3.83 1.45-1.58 3.17-2.24.52-.26 1.71-.26h1.12q.73 0 1.13-.14 1.45-.52 2.97-1.98l1.78-1.71q1.45-1.45 2.77-2.38 4.22-3.03 11.09-6.33 6.86-3.3 11.75-3.3 4.75 0 6.07 3.82.53 1.46.53 3.17 0 5.02-3.44 10.89-3.43 5.88-8.97 13.14-.79 1.18-2.64 3.69 14.25-7.26 26.93-7.26 3.43 0 6.2.53m53.59 10.56q.13-2.64 3.76-4.69 3.63-2.04 7.33-2.04 2.11 0 3.43.86 1.32.85 1.19 2.7-.26 5.02-.26 8.05-.66 17.16-2.31 29.18-1.65 12.01-7.33 22.57t-16.9 13.86q-3.82 1.05-7.26 1.05-8.44 0-14.85-5.01-6.4-5.02-7.32-13.6-.27-3.43-.27-5.15 0-9.1 2.78-18.61 2.77-9.5 8.05-22.97 1.58-3.56 3.56-9.1.79-2.25 4.03-3.77 3.23-1.51 6.4-1.51 2.11 0 3.43.85 1.32.86 1.32 2.45 0 .52-.26 1.58-2.64 7.66-4.09 11.48-3.83 10.7-5.94 17.89-2.12 7.19-2.91 14.72-.26 3.17-.26 5.01 0 7.79 3.83 11.22 1.18 1.19 3.16 2.18 1.98.99 3.7 1.12l1.06.27q.13 0 .52-.4 3.3-2.11 5.35-7.19t2.71-9.04q.66-3.96 1.84-12.54.93-7 1.52-15.32.6-8.31.99-16.1m80.65 24.55q.14.13.14.4.92 8.31.92 17.95 0 10.69-1.32 20.46-.4 2.64-4.09 4.69-3.7 2.04-7.26 2.04-2.11 0-3.3-.86-1.19-.85-1.06-2.7 1.32-12.15 1.32-21.52-4.09 10.43-11.09 17.62-6.99 7.2-16.23 7.2-1.98 0-3.96-.4-8.58-1.45-12.28-7.85-3.69-6.4-3.69-15.78 0-9.24 3.03-20.06 2.38-8.18 7.06-15.77 4.69-7.59 11.42-12.48 6.73-4.88 14.79-4.88 6.86 0 10.03 2.64 3.17 2.64 3.17 6.99 0 5.42-3.96 11.95-3.96 6.53-8.45 9.97-1.32.92-3.57 1.51-2.24.6-4.35.6-2.38 0-3.83-.66-1.45-.66-1.45-1.85 0-1.72 2.64-3.96 1.71-1.45 4.68-6.27 2.97-4.82 2.97-7.59 0-2.51-2.77-2.51-3.96 0-9.37 11.88-3.04 5.94-4.49 12.94-1.85 8.45-1.85 15.57 0 12.81 7 14.13 2.77.39 5.48-4.16 2.7-4.55 4.68-10.76-1.71.93-5.14 2.51-2.12.92-4.62.92-2.64 0-3.96-1.32-.8-1.05-.8-1.98 0-1.18.73-2.31.73-1.12 1.78-1.78 16.77-11.48 31.95-18.35 1.18-.52 2.9-.52 2.64 0 4.62 1.25t1.58 3.1m115.37 21.52q.66.79 3.1 3.43 2.45 2.64 3.96 5.35 1.52 2.7 1.52 5.21 0 3.17-2.37 5.94-2.91 3.56-7.13 3.56-1.85 0-4.09-.52-2.25-.53-2.91-.66-10.43-2.12-24.29-2.12-10.69 0-22.7 1.06-1.06.13-3.04.26-1.98.14-3.56.14-4.75 0-7.59-1.52t-2.84-5.61q0-2.38.93-5.08.92-2.71 2.77-6.54l1.19-2.77q1.98-4.88 4.35-7.46 2.38-2.57 6.73-2.57 3.57 0 5.61 2.31 2.05 2.31 2.05 5.74 0 2.38-1.19 4.75 8.32-.53 18.88-.53 6.2 0 9.37.14-12.14-15.32-18.08-23.1l-9.11-11.49q-2.11-2.64-3.57-4.09-4.88-5.68-7.39-9.7-2.51-4.03-2.51-8.25 0-3.96 2.84-6.4 2.84-2.45 6.73-3.7 3.9-1.25 9.84-2.44l5.54-1.19q10.43-2.64 21.52-4.75.92-.13 3.69-.66 4.49-1.19 7.92-1.19 4.36 0 6.6 2.38 2.38 2.5 2.38 5.14 0 2.51-1.52 5.02t-4.82 6.6q-3.96 4.75-5.01 7-1.72 3.69-3.63 6.2-1.92 2.51-4.29 2.51-1.72 0-3.43-1.32-1.85-1.45-1.85-3.96 0-1.85.86-3.9.85-2.04 1.71-3.76.86-1.71 1.12-2.11-6.73 1.19-19.93 4.62-1.58.53-6.47 1.72l15.84 18.21q20.33 23.1 26.27 30.1m55.44-53.73q2.77-.26 4.29.66 1.52.93 3.24 3.57 1.05 1.71 1.05 2.9 0 2.91-3.69 3.43l-4.62.53q-6.47.93-6.87.93-2.24 21.12-3.56 36.69-1.32 15.58-1.72 30.76-.13 1.85-1.52 2.77-1.38.92-3.63.92-3.96 0-7.85-2.17-3.89-2.18-3.76-4.95.39-14 1.58-28.58 1.19-14.59 3.17-33.86l-8.32 1.06q-1.84.13-2.83-.2t-1.92-1.52q-.92-1.19-1.85-2.64-1.05-1.45-1.05-2.9 0-1.19.92-2.12.93-.92 2.77-1.18 2.91-.4 6.74-.93l6.73-.92 2.37-22.84q.4-3.69 5.42-3.69 3.96 0 7.72 2.17 3.76 2.18 3.5 4.95l-1.72 17.69q3.7-.26 5.41-.53m46.86 50.43q3.04-7.13 3.04-14.65 0-5.94-2.05-10.89-2.04-4.95-6.4-8.12-2.9-2.11-5.54-2.11-1.06 0-2.64.52 1.18.53 1.18 1.85 0 .79-.52 1.85-3.04 5.81-4.76 12.61-1.71 6.79-1.71 13.66 0 7.92 2.37 15.05 1.59 3.96 3.3 6.2.8.92 1.59 1.32 3.83-2.64 6.93-7.39 3.1-4.75 5.21-9.9m-1.85-46.33q6.47 1.32 11.09 5.67 4.62 4.36 7 10.5 2.37 6.13 2.37 12.73 0 7.79-3.03 15.98-3.04 8.18-8.32 15.04-5.28 6.87-11.75 10.83-6.07 3.69-11.88 3.69-5.8 0-10.16-3.56t-6.34-10.3q-2.24-6.86-2.24-15.44 0-5.15.79-10.03-.92.26-2.77.26-4.49 0-4.49-3.03 0-1.06.27-1.72 4.48-12.54 13.53-21.85 9.04-9.3 20.79-9.3 1.71 0 5.14.53m46.07 30.75 3.83-3.17q5.15-4.09 8.38-7.26 3.24-3.16 4.95-6.33-7.13-1.85-21.12-6.07l-.66 26.79q3.96-3.3 4.62-3.96m25.08 15.31q1.06-2.11 4.49-3.63 3.43-1.51 6.6-1.51 4.36 0 4.36 2.77 0 .79-.4 1.85-5.41 12.67-8.18 24.55-.66 2.64-3.83 4.88-1.32 1.72-4.03 2.91-2.7 1.18-5.34 1.18-2.25 0-3.63-.92-1.39-.92-1.52-2.9-.53-8.58-5.61-15.71-5.08-7.13-13-9.24l-.66 19.14q-.14 2.51-4.16 4.62-4.03 2.11-7.72 2.11-1.98 0-3.17-.73-1.19-.72-1.19-2.31l.4-18.21q-1.72-1.19-1.72-2.77 0-1.85 1.98-3.57.66-24.02 1.58-47.91.14-2.78 3.77-4.82 3.63-2.05 7.32-2.05 2.77 0 3.96 1.32 14.39 3.96 29.83 8.71 2.38-.52 3.3-.52 2.25 0 3.5.99 1.26.99 1.26 2.97 0 5.41-3.57 9.96-3.56 4.56-9.9 10.1l-2.64 2.38q-6.33 6.2-12.27 10.95 10.82 3.04 17.42 12.01.53-1.32 2.77-6.6m74.19 14.52q1.98.66 1.98 2.38 0 2.11-2.51 4.62-2.77 2.77-7.13 2.77-2.11 0-3.56-.53-7-2.24-12.68-2.24-9.9 0-20.19 6.34-1.72 1.18-4.16 1.91-2.44.73-4.55.73-1.98 0-3.17-.73t-1.19-2.31q0-.92.26-1.58 3.83-10.7 6.14-19.28 2.31-8.58 3.1-17.42 1.19-11.88 1.19-17.42 0-14.66-5.67-22.44-.66-.8-.66-2.12 0-2.64 3.69-4.95 3.7-2.31 7.26-2.31 2.38 0 3.43 1.06 1.72.66 2.25 2.11 3.3 8.71 9.11 14.72 5.8 6.01 13.72 6.01 1.46 0 4.36-.53 1.85-.27 2.38-.27 2.24 0 3.36.99 1.12.99 1.12 2.71 0 1.85-1.51 3.7-1.52 1.84-4.03 2.64-5.41 1.84-10.82 1.84-6.47 0-12.41-2.64-.27 7.4-.66 11.09l-.93 8.32q5.15-.93 10.3-1.59l1.85-.13q5.28 0 5.28 3.57 0 2.37-2.64 4.22-2.64 1.85-5.41 2.38-4.1.79-11.22 1.71-1.46 6.47-3.17 12.15 8.71-3.17 17.69-3.17 9.9 0 19.8 3.69"></path><rect width="45.729" height="121.298" x="-22.864" y="-60.649" stroke="#7e91c6" stroke-width="2" rx="22" ry="22" transform="rotate(-90 233.999 -47.819)scale(1.0461)"></rect><path fill="#7e91c6" d="M245.195 190.625q8.13-.45 12.6-1-.42 1.3-.65 2.75-.22 1.45-.22 2.63h-17.88l-.02-.53q0-2.45 1.44-4.25 1.43-1.8 4.01-3.32.75-.45 2.35-1.15 2.07-.9 3.2-1.59 1.12-.69 1.12-1.36 0-.85-.7-1.35-.7-.5-2.17-.5-1.63 0-2.46.82-.84.83-.84 2.1 0 .4.07.83-3.15-.4-6.12-.55 0-2.13 1.11-3.84t3.35-2.71q2.24-1 5.49-1 2.97 0 4.96.81 1.99.81 2.93 2.05.93 1.24.93 2.54 0 1.5-.66 2.57-.66 1.08-1.9 1.91-1.24.84-3.31 1.82-.3.15-.98.33l-.85.24q-1.77.53-2.82.88-1.05.35-1.98.87m25.08 4.63q-5.38 0-7.93-2.48-2.55-2.47-2.55-6.87 0-4.38 2.57-6.84 2.56-2.46 7.91-2.46t7.9 2.46q2.55 2.46 2.55 6.84 0 4.4-2.55 6.87-2.55 2.48-7.9 2.48m.02-4.38q2.3 0 3.35-1.41 1.05-1.41 1.05-3.56 0-2.13-1.05-3.54-1.05-1.41-3.35-1.41-2.37 0-3.43 1.41-1.07 1.41-1.07 3.54 0 2.12 1.07 3.55 1.06 1.42 3.43 1.42m18.7-.25q8.13-.45 12.6-1-.42 1.3-.65 2.75-.22 1.45-.22 2.63h-17.88l-.02-.53q0-2.45 1.44-4.25 1.43-1.8 4.01-3.32.75-.45 2.35-1.15 2.07-.9 3.2-1.59 1.12-.69 1.12-1.36 0-.85-.7-1.35-.7-.5-2.17-.5-1.63 0-2.46.82-.84.83-.84 2.1 0 .4.07.83-3.15-.4-6.12-.55 0-2.13 1.11-3.84t3.35-2.71q2.24-1 5.49-1 2.97 0 4.96.81 1.99.81 2.93 2.05.93 1.24.93 2.54 0 1.5-.66 2.57-.66 1.08-1.9 1.91-1.24.84-3.31 1.82-.3.15-.98.33l-.85.24q-1.77.53-2.82.88-1.05.35-1.98.87m32.3-3.5h3.4v4.7h-3.4v3.18h-5.97q.1-1.05.15-3.18h-11.88v-5.05q5.83-4.47 10.4-9.92h7.3zm-5.77 0 .07-5.32q-1.72 1.77-2.97 2.96-1.25 1.19-2.83 2.36z"></path></svg></svg>